<svg xmlns="http://www.w3.org/2000/svg" width="64" height="64" viewBox="0 0 64 64"><path fill="#fff" fill-rule="evenodd" d="M51.7 28.4 L51.7 35.6 L45.7 34.9 L43.8 39.6 L48.5 43.4 L43.4 48.5 L39.6 43.8 L34.9 45.7 L35.6 51.7 L28.4 51.7 L29.1 45.7 L24.4 43.8 L20.6 48.5 L15.5 43.4 L20.2 39.6 L18.3 34.9 L12.3 35.6 L12.3 28.4 L18.3 29.1 L20.2 24.4 L15.5 20.6 L20.6 15.5 L24.4 20.2 L29.1 18.3 L28.4 12.3 L35.6 12.3 L34.9 18.3 L39.6 20.2 L43.4 15.5 L48.5 20.6 L43.8 24.4 L45.7 29.1 Z M26 32 a6 6 0 1 0 12 0 a6 6 0 1 0 -12 0 Z"/></svg>