<svg xmlns="http://www.w3.org/2000/svg" viewBox="0 0 600 400" width="600" height="400">
  <defs>
    <linearGradient id="nk-sky" x1="0" y1="0" x2="0" y2="1">
      <stop offset="0" stop-color="#FF7A4D"/>
      <stop offset="0.55" stop-color="#C9512F"/>
      <stop offset="1" stop-color="#6E2A1E"/>
    </linearGradient>
    <linearGradient id="nk-hill1" x1="0" y1="0" x2="0" y2="1">
      <stop offset="0" stop-color="#3FD98A"/>
      <stop offset="1" stop-color="#1E7B4C"/>
    </linearGradient>
    <linearGradient id="nk-hill2" x1="0" y1="0" x2="0" y2="1">
      <stop offset="0" stop-color="#2FB873"/>
      <stop offset="1" stop-color="#155C39"/>
    </linearGradient>
  </defs>
  <rect width="600" height="400" fill="url(#nk-sky)"/>
  <circle cx="455" cy="120" r="60" fill="#FFD23D" opacity="0.85"/>
  <circle cx="455" cy="120" r="92" fill="#FFD23D" opacity="0.18"/>
  <!-- far hills -->
  <path d="M0 250 L120 205 L240 245 L360 200 L480 240 L600 205 L600 400 L0 400 Z" fill="url(#nk-hill2)" opacity="0.9"/>
  <!-- near hill -->
  <path d="M0 300 L150 260 L320 305 L470 270 L600 300 L600 400 L0 400 Z" fill="url(#nk-hill1)"/>
  <!-- low-poly trees -->
  <g>
    <polygon points="120,330 150,255 180,330" fill="#1E7B4C"/>
    <polygon points="128,300 150,250 172,300" fill="#34C47E"/>
    <rect x="146" y="330" width="8" height="20" fill="#4A2A1B"/>
  </g>
  <g>
    <polygon points="230,345 268,250 306,345" fill="#176A41"/>
    <polygon points="240,310 268,245 296,310" fill="#2FB873"/>
    <rect x="263" y="345" width="10" height="24" fill="#4A2A1B"/>
  </g>
  <g>
    <polygon points="380,335 412,262 444,335" fill="#1E7B4C"/>
    <polygon points="388,308 412,258 436,308" fill="#34C47E"/>
    <rect x="408" y="335" width="8" height="22" fill="#4A2A1B"/>
  </g>
  <!-- low-poly rocks -->
  <polygon points="60,360 95,345 110,372 70,380" fill="#3A6B4E"/>
  <polygon points="500,372 540,355 560,378 520,388" fill="#2E5A40"/>
</svg>
