<svg xmlns="http://www.w3.org/2000/svg" width="420" height="280" viewBox="0 0 420 280"><defs>
<linearGradient id="screen" x1="0" y1="0" x2="0" y2="1"><stop offset="0" stop-color="#0C2026"/><stop offset="1" stop-color="#06121A"/></linearGradient>
<linearGradient id="accent" x1="0" y1="0" x2="1" y2="0"><stop offset="0" stop-color="#3FD98A"/><stop offset="1" stop-color="#34B7FF"/></linearGradient>
<linearGradient id="cyan" x1="0" y1="0" x2="1" y2="0"><stop offset="0" stop-color="#7FE3FF"/><stop offset="1" stop-color="#34B7FF"/></linearGradient>
<linearGradient id="green" x1="0" y1="0" x2="1" y2="0"><stop offset="0" stop-color="#3FD98A"/><stop offset="1" stop-color="#1F8F63"/></linearGradient>
<linearGradient id="blue" x1="0" y1="0" x2="1" y2="0"><stop offset="0" stop-color="#34B7FF"/><stop offset="1" stop-color="#1E5FA5"/></linearGradient>
<linearGradient id="spectrum" x1="0" y1="0" x2="1" y2="0"><stop offset="0" stop-color="#FF5A5F"/><stop offset="0.22" stop-color="#FFA63D"/><stop offset="0.44" stop-color="#FFD23D"/><stop offset="0.66" stop-color="#3FD98A"/><stop offset="0.84" stop-color="#34B7FF"/><stop offset="1" stop-color="#9B6BFF"/></linearGradient>
<radialGradient id="glow" cx="0.5" cy="0.5" r="0.5"><stop offset="0" stop-color="#7A5AFF" stop-opacity="0.30"/><stop offset="0.5" stop-color="#34B7FF" stop-opacity="0.12"/><stop offset="1" stop-color="#34B7FF" stop-opacity="0"/></radialGradient>
</defs><rect width="420" height="280" fill="url(#screen)"/><rect width="420" height="6" fill="url(#spectrum)"/><ellipse cx="344.4" cy="33.6" rx="210" ry="140" fill="url(#glow)"/><g transform="translate(40 60) scale(0.32)"><path d="M120,16 L60,112 L100,112 L80,184 L150,76 L108,76 Z" fill="url(#spectrum)"/></g><text x="120" y="115" font-family="Orbitron, 'Helvetica Neue', sans-serif" font-size="40" font-weight="800" fill="#E6FCFF">SCI-FI</text><text x="120" y="160" font-family="Orbitron, 'Helvetica Neue', sans-serif" font-size="40" font-weight="800" fill="url(#accent)">UI PACK</text><text x="42" y="230" font-family="Menlo, monospace" font-size="16" font-weight="400" fill="#5E9AA0" text-anchor="start" letter-spacing="0" opacity="1">Rainbow Bolt Studio · URP · Unity 6</text><g transform="translate(250 195)"><path d="M10 0 H114 L130 16 V34 Q130 44 120 44 H10 Q0 44 0 34 V10 Q0 0 10 0 Z" fill="#15454D" stroke="#3FD98A" stroke-width="2.5"/><rect x="14" y="12.32" width="6" height="19.36" rx="3" fill="#7FE3FF"/><text x="73" y="28.3" font-family="Orbitron, 'Helvetica Neue', sans-serif" font-size="18" font-weight="700" fill="#EAFFF6" text-anchor="middle" letter-spacing="2" opacity="1">PLAY</text></g></svg>