<svg xmlns="http://www.w3.org/2000/svg" width="1950" height="1300" viewBox="0 0 1950 1300"><defs>
<linearGradient id="screen" x1="0" y1="0" x2="0" y2="1"><stop offset="0" stop-color="#0C2026"/><stop offset="1" stop-color="#06121A"/></linearGradient>
<linearGradient id="accent" x1="0" y1="0" x2="1" y2="0"><stop offset="0" stop-color="#3FD98A"/><stop offset="1" stop-color="#34B7FF"/></linearGradient>
<linearGradient id="cyan" x1="0" y1="0" x2="1" y2="0"><stop offset="0" stop-color="#7FE3FF"/><stop offset="1" stop-color="#34B7FF"/></linearGradient>
<linearGradient id="green" x1="0" y1="0" x2="1" y2="0"><stop offset="0" stop-color="#3FD98A"/><stop offset="1" stop-color="#1F8F63"/></linearGradient>
<linearGradient id="blue" x1="0" y1="0" x2="1" y2="0"><stop offset="0" stop-color="#34B7FF"/><stop offset="1" stop-color="#1E5FA5"/></linearGradient>
<linearGradient id="spectrum" x1="0" y1="0" x2="1" y2="0"><stop offset="0" stop-color="#FF5A5F"/><stop offset="0.22" stop-color="#FFA63D"/><stop offset="0.44" stop-color="#FFD23D"/><stop offset="0.66" stop-color="#3FD98A"/><stop offset="0.84" stop-color="#34B7FF"/><stop offset="1" stop-color="#9B6BFF"/></linearGradient>
<radialGradient id="glow" cx="0.5" cy="0.5" r="0.5"><stop offset="0" stop-color="#7A5AFF" stop-opacity="0.30"/><stop offset="0.5" stop-color="#34B7FF" stop-opacity="0.12"/><stop offset="1" stop-color="#34B7FF" stop-opacity="0"/></radialGradient>
</defs><rect width="1950" height="1300" fill="url(#screen)"/><rect width="1950" height="6" fill="url(#spectrum)"/><ellipse cx="1599" cy="156" rx="975" ry="650" fill="url(#glow)"/><g stroke="#7FE3FF" stroke-opacity="0.05" stroke-width="1"><path d="M0 0 V1300"/><path d="M80 0 V1300"/><path d="M160 0 V1300"/><path d="M240 0 V1300"/><path d="M320 0 V1300"/><path d="M400 0 V1300"/><path d="M480 0 V1300"/><path d="M560 0 V1300"/><path d="M640 0 V1300"/><path d="M720 0 V1300"/><path d="M800 0 V1300"/><path d="M880 0 V1300"/><path d="M960 0 V1300"/><path d="M1040 0 V1300"/><path d="M1120 0 V1300"/><path d="M1200 0 V1300"/><path d="M1280 0 V1300"/><path d="M1360 0 V1300"/><path d="M1440 0 V1300"/><path d="M1520 0 V1300"/><path d="M1600 0 V1300"/><path d="M1680 0 V1300"/><path d="M1760 0 V1300"/><path d="M1840 0 V1300"/><path d="M1920 0 V1300"/><path d="M0 0 H1950"/><path d="M0 80 H1950"/><path d="M0 160 H1950"/><path d="M0 240 H1950"/><path d="M0 320 H1950"/><path d="M0 400 H1950"/><path d="M0 480 H1950"/><path d="M0 560 H1950"/><path d="M0 640 H1950"/><path d="M0 720 H1950"/><path d="M0 800 H1950"/><path d="M0 880 H1950"/><path d="M0 960 H1950"/><path d="M0 1040 H1950"/><path d="M0 1120 H1950"/><path d="M0 1200 H1950"/><path d="M0 1280 H1950"/></g><text x="140" y="175" font-family="Menlo, monospace" font-size="26" font-weight="400" fill="#5E9AA0" text-anchor="start" letter-spacing="4" opacity="1">// RAINBOW BOLT STUDIO</text><text x="136" y="360" font-family="Orbitron, 'Helvetica Neue', sans-serif" font-size="150" font-weight="800" fill="url(#spectrum)" letter-spacing="2">SCI-FI</text><text x="140" y="500" font-family="Orbitron, 'Helvetica Neue', sans-serif" font-size="150" font-weight="800" fill="#E6FCFF" letter-spacing="2">UI PACK</text><text x="146" y="590" font-family="'Helvetica Neue', Helvetica, Arial, sans-serif" font-size="36" font-weight="500" fill="#7FE3FF" text-anchor="start" letter-spacing="0" opacity="1">Production-ready, themeable UI for Unity.</text><g transform="translate(146 660)"><rect width="235" height="40" rx="20" fill="#10333A" stroke="#2E9FE0" stroke-opacity="0.5"/><text x="117.5" y="26" font-family="Menlo, monospace" font-size="17" font-weight="400" fill="#7FE3FF" text-anchor="middle" letter-spacing="0" opacity="1">40+ SPRITES &amp; ICONS</text></g><g transform="translate(397 660)"><rect width="169" height="40" rx="20" fill="#10333A" stroke="#2E9FE0" stroke-opacity="0.5"/><text x="84.5" y="26" font-family="Menlo, monospace" font-size="17" font-weight="400" fill="#7FE3FF" text-anchor="middle" letter-spacing="0" opacity="1">URP · UNITY 6</text></g><g transform="translate(582 660)"><rect width="103" height="40" rx="20" fill="#10333A" stroke="#2E9FE0" stroke-opacity="0.5"/><text x="51.5" y="26" font-family="Menlo, monospace" font-size="17" font-weight="400" fill="#7FE3FF" text-anchor="middle" letter-spacing="0" opacity="1">9-SLICE</text></g><g transform="translate(701 660)"><rect width="147" height="40" rx="20" fill="#10333A" stroke="#2E9FE0" stroke-opacity="0.5"/><text x="73.5" y="26" font-family="Menlo, monospace" font-size="17" font-weight="400" fill="#7FE3FF" text-anchor="middle" letter-spacing="0" opacity="1">TEXTMESHPRO</text></g><text x="146" y="1210" font-family="Menlo, monospace" font-size="28" font-weight="400" fill="#5E9AA0" text-anchor="start" letter-spacing="2" opacity="1">rainbowbolt.studio</text><g transform="translate(1030 470) scale(1.08)"><g><rect x="2" y="2" width="756" height="556" rx="22" fill="#0A2329" fill-opacity="0.95" stroke="#2E9FE0" stroke-opacity="0.5" stroke-width="3"/><rect x="2" y="2" width="756" height="60" rx="22" fill="#0E3A42"/><path d="M2 62 H758" stroke="#34B7FF" stroke-opacity="0.4" fill="none"/><text x="34" y="42" font-family="Orbitron, 'Helvetica Neue', sans-serif" font-size="28" font-weight="700" fill="#7FE3FF" text-anchor="start" letter-spacing="3" opacity="1">SYSTEM PANEL</text><circle cx="724" cy="32" r="7" fill="#3FD98A"/><g transform="translate(34 96)"><path d="M10 0 H284 L300 16 V68 Q300 78 290 78 H10 Q0 78 0 68 V10 Q0 0 10 0 Z" fill="#15454D" stroke="#3FD98A" stroke-width="4"/><rect x="14" y="21.840000000000003" width="6" height="34.32" rx="3" fill="#7FE3FF"/><text x="158" y="49.5" font-family="Orbitron, 'Helvetica Neue', sans-serif" font-size="30" font-weight="700" fill="#EAFFF6" text-anchor="middle" letter-spacing="2" opacity="1">PLAY</text></g><g transform="translate(360 96)"><path d="M10 0 H284 L300 16 V68 Q300 78 290 78 H10 Q0 78 0 68 V10 Q0 0 10 0 Z" fill="#0F2E34" stroke="#2E9FE0" stroke-width="3"/><rect x="14" y="21.840000000000003" width="6" height="34.32" rx="3" fill="#3FD98A"/><text x="158" y="48.1" font-family="Orbitron, 'Helvetica Neue', sans-serif" font-size="26" font-weight="700" fill="#CFF3FF" text-anchor="middle" letter-spacing="2" opacity="1">SETTINGS</text></g><text x="34" y="222" font-family="Menlo, monospace" font-size="20" font-weight="400" fill="#5E9AA0" text-anchor="start" letter-spacing="2" opacity="1">HEALTH</text><rect x="34" y="234" width="380" height="26" rx="13" fill="#08191E" stroke="#243B41" stroke-width="2"/><rect x="34" y="234" width="273.6" height="26" rx="13" fill="url(#green)"/><path d="M47 241.28 H294.6" stroke="#fff" stroke-opacity="0.5" stroke-width="2" stroke-linecap="round"/><text x="34" y="290" font-family="Menlo, monospace" font-size="20" font-weight="400" fill="#5E9AA0" text-anchor="start" letter-spacing="2" opacity="1">ENERGY</text><rect x="34" y="302" width="380" height="26" rx="13" fill="#08191E" stroke="#243B41" stroke-width="2"/><rect x="34" y="302" width="182.4" height="26" rx="13" fill="url(#blue)"/><path d="M47 309.28 H203.4" stroke="#fff" stroke-opacity="0.5" stroke-width="2" stroke-linecap="round"/><text x="34" y="358" font-family="Menlo, monospace" font-size="20" font-weight="400" fill="#5E9AA0" text-anchor="start" letter-spacing="2" opacity="1">SHIELD</text><rect x="34" y="370" width="380" height="26" rx="13" fill="#08191E" stroke="#243B41" stroke-width="2"/><rect x="34" y="370" width="125.4" height="26" rx="13" fill="url(#cyan)"/><path d="M47 377.28 H146.4" stroke="#fff" stroke-opacity="0.5" stroke-width="2" stroke-linecap="round"/><g transform="translate(600 300)" fill="none"><circle r="96" stroke="#1E6FB8" stroke-width="15.36" stroke-opacity="0.35"/><circle r="96" stroke="url(#cyan)" stroke-width="10.56" stroke-dasharray="153.60000000000002 480" stroke-linecap="round" transform="rotate(-90)"/><circle r="63.36" stroke="#3FD98A" stroke-width="2" stroke-dasharray="3 8" stroke-opacity="0.7"/><circle r="28.799999999999997" stroke="#7FE3FF" stroke-width="2" stroke-opacity="0.6"/><circle r="9.600000000000001" fill="#3FD98A"/></g><g transform="translate(34 446)"><rect width="60" height="60" rx="14" fill="#0E2E34" stroke="#2E9FE0" stroke-opacity="0.5"/><g transform="translate(-2 -2) scale(1.0)"><path d="M24 18 L46 32 L24 46 Z" fill="#7FE3FF"/></g></g><g transform="translate(110 446)"><rect width="60" height="60" rx="14" fill="#0E2E34" stroke="#2E9FE0" stroke-opacity="0.5"/><g transform="translate(-2 -2) scale(1.0)"><path d="M32 45 C16 34 19 19 32 27 C45 19 48 34 32 45 Z" fill="#7FE3FF"/></g></g><g transform="translate(186 446)"><rect width="60" height="60" rx="14" fill="#0E2E34" stroke="#2E9FE0" stroke-opacity="0.5"/><g transform="translate(-2 -2) scale(1.0)"><path d="M32 17 L46 23 V33 C46 41 32 47 32 47 C32 47 18 41 18 33 V23 Z" fill="#7FE3FF"/></g></g><g transform="translate(262 446)"><rect width="60" height="60" rx="14" fill="#0E2E34" stroke="#2E9FE0" stroke-opacity="0.5"/><g transform="translate(-2 -2) scale(1.0)"><path d="M35 15 L19 36 L30 36 L27 49 L45 27 L34 27 Z" fill="#7FE3FF"/></g></g><g transform="translate(338 446)"><rect width="60" height="60" rx="14" fill="#0E2E34" stroke="#2E9FE0" stroke-opacity="0.5"/><g transform="translate(-2 -2) scale(1.0)"><path d="M32 16 L35.9 25.7 L46.3 26.4 L38.3 33 L40.8 43.1 L32 37.6 L23.2 43.1 L25.7 33 L17.7 26.4 L28.1 25.7 Z" fill="#7FE3FF"/></g></g><g transform="translate(414 446)"><rect width="60" height="60" rx="14" fill="#0E2E34" stroke="#2E9FE0" stroke-opacity="0.5"/><g transform="translate(-2 -2) scale(1.0)"><path fill="#7FE3FF" fill-rule="evenodd" d="M51.7 28.4 L51.7 35.6 L45.7 34.9 L43.8 39.6 L48.5 43.4 L43.4 48.5 L39.6 43.8 L34.9 45.7 L35.6 51.7 L28.4 51.7 L29.1 45.7 L24.4 43.8 L20.6 48.5 L15.5 43.4 L20.2 39.6 L18.3 34.9 L12.3 35.6 L12.3 28.4 L18.3 29.1 L20.2 24.4 L15.5 20.6 L20.6 15.5 L24.4 20.2 L29.1 18.3 L28.4 12.3 L35.6 12.3 L34.9 18.3 L39.6 20.2 L43.4 15.5 L48.5 20.6 L43.8 24.4 L45.7 29.1 Z M26 32 a6 6 0 1 0 12 0 a6 6 0 1 0 -12 0 Z"/></g></g><g transform="translate(490 446)"><rect width="60" height="60" rx="14" fill="#0E2E34" stroke="#2E9FE0" stroke-opacity="0.5"/><g transform="translate(-2 -2) scale(1.0)"><path d="M23 18 H41 V27 a9 9 0 0 1 -18 0 Z" fill="#7FE3FF"/><path d="M23 22 H17 a6 6 0 0 0 6 6" fill="none" stroke="#7FE3FF" stroke-width="3"/><path d="M41 22 H47 a6 6 0 0 1 -6 6" fill="none" stroke="#7FE3FF" stroke-width="3"/><rect x="29" y="35" width="6" height="6" fill="#7FE3FF"/><rect x="23" y="43" width="18" height="4" rx="2" fill="#7FE3FF"/></g></g><g stroke="#7FE3FF" stroke-opacity="0.6" stroke-width="2.5" fill="none"><path d="M18 38 V18 H38"/><path d="M722 18 H742 V38"/><path d="M742 522 V542 H722"/><path d="M38 542 H18 V522"/></g></g></g></svg>