<svg xmlns="http://www.w3.org/2000/svg" width="1920" height="1080" viewBox="0 0 1920 1080"><defs>
<linearGradient id="screen" x1="0" y1="0" x2="0" y2="1"><stop offset="0" stop-color="#0C2026"/><stop offset="1" stop-color="#06121A"/></linearGradient>
<linearGradient id="accent" x1="0" y1="0" x2="1" y2="0"><stop offset="0" stop-color="#3FD98A"/><stop offset="1" stop-color="#34B7FF"/></linearGradient>
<linearGradient id="cyan" x1="0" y1="0" x2="1" y2="0"><stop offset="0" stop-color="#7FE3FF"/><stop offset="1" stop-color="#34B7FF"/></linearGradient>
<linearGradient id="green" x1="0" y1="0" x2="1" y2="0"><stop offset="0" stop-color="#3FD98A"/><stop offset="1" stop-color="#1F8F63"/></linearGradient>
<linearGradient id="blue" x1="0" y1="0" x2="1" y2="0"><stop offset="0" stop-color="#34B7FF"/><stop offset="1" stop-color="#1E5FA5"/></linearGradient>
<linearGradient id="spectrum" x1="0" y1="0" x2="1" y2="0"><stop offset="0" stop-color="#FF5A5F"/><stop offset="0.22" stop-color="#FFA63D"/><stop offset="0.44" stop-color="#FFD23D"/><stop offset="0.66" stop-color="#3FD98A"/><stop offset="0.84" stop-color="#34B7FF"/><stop offset="1" stop-color="#9B6BFF"/></linearGradient>
<radialGradient id="glow" cx="0.5" cy="0.5" r="0.5"><stop offset="0" stop-color="#7A5AFF" stop-opacity="0.30"/><stop offset="0.5" stop-color="#34B7FF" stop-opacity="0.12"/><stop offset="1" stop-color="#34B7FF" stop-opacity="0"/></radialGradient>
</defs><rect width="1920" height="1080" fill="url(#screen)"/><rect width="1920" height="6" fill="url(#spectrum)"/><ellipse cx="1574.3999999999999" cy="129.6" rx="960" ry="540" fill="url(#glow)"/><g stroke="#7FE3FF" stroke-opacity="0.05" stroke-width="1"><path d="M0 0 V1080"/><path d="M80 0 V1080"/><path d="M160 0 V1080"/><path d="M240 0 V1080"/><path d="M320 0 V1080"/><path d="M400 0 V1080"/><path d="M480 0 V1080"/><path d="M560 0 V1080"/><path d="M640 0 V1080"/><path d="M720 0 V1080"/><path d="M800 0 V1080"/><path d="M880 0 V1080"/><path d="M960 0 V1080"/><path d="M1040 0 V1080"/><path d="M1120 0 V1080"/><path d="M1200 0 V1080"/><path d="M1280 0 V1080"/><path d="M1360 0 V1080"/><path d="M1440 0 V1080"/><path d="M1520 0 V1080"/><path d="M1600 0 V1080"/><path d="M1680 0 V1080"/><path d="M1760 0 V1080"/><path d="M1840 0 V1080"/><path d="M1920 0 V1080"/><path d="M0 0 H1920"/><path d="M0 80 H1920"/><path d="M0 160 H1920"/><path d="M0 240 H1920"/><path d="M0 320 H1920"/><path d="M0 400 H1920"/><path d="M0 480 H1920"/><path d="M0 560 H1920"/><path d="M0 640 H1920"/><path d="M0 720 H1920"/><path d="M0 800 H1920"/><path d="M0 880 H1920"/><path d="M0 960 H1920"/><path d="M0 1040 H1920"/></g><text x="120" y="130" font-family="Orbitron, 'Helvetica Neue', sans-serif" font-size="60" font-weight="800" fill="#E6FCFF" text-anchor="start" letter-spacing="2" opacity="1">24 TINTABLE ICONS</text><text x="124" y="185" font-family="'Helvetica Neue', Helvetica, Arial, sans-serif" font-size="32" font-weight="400" fill="#7FE3FF" text-anchor="start" letter-spacing="0" opacity="1">Monochrome and crisp — tint to any color in seconds.</text><g transform="translate(160 280)"><rect width="150" height="150" rx="26" fill="#0E2E34" stroke="#2E9FE0" stroke-opacity="0.45"/><g transform="translate(43 43) scale(1.0)"><path d="M24 18 L46 32 L24 46 Z" fill="#7FE3FF"/></g></g><g transform="translate(360 280)"><rect width="150" height="150" rx="26" fill="#0E2E34" stroke="#2E9FE0" stroke-opacity="0.45"/><g transform="translate(43 43) scale(1.0)"><rect x="23" y="18" width="7" height="28" rx="2" fill="#7FE3FF"/><rect x="34" y="18" width="7" height="28" rx="2" fill="#7FE3FF"/></g></g><g transform="translate(560 280)"><rect width="150" height="150" rx="26" fill="#0E2E34" stroke="#2E9FE0" stroke-opacity="0.45"/><g transform="translate(43 43) scale(1.0)"><rect x="20" y="20" width="24" height="24" rx="3" fill="#7FE3FF"/></g></g><g transform="translate(760 280)"><rect width="150" height="150" rx="26" fill="#0E2E34" stroke="#2E9FE0" stroke-opacity="0.45"/><g transform="translate(43 43) scale(1.0)"><path fill="#7FE3FF" fill-rule="evenodd" d="M51.7 28.4 L51.7 35.6 L45.7 34.9 L43.8 39.6 L48.5 43.4 L43.4 48.5 L39.6 43.8 L34.9 45.7 L35.6 51.7 L28.4 51.7 L29.1 45.7 L24.4 43.8 L20.6 48.5 L15.5 43.4 L20.2 39.6 L18.3 34.9 L12.3 35.6 L12.3 28.4 L18.3 29.1 L20.2 24.4 L15.5 20.6 L20.6 15.5 L24.4 20.2 L29.1 18.3 L28.4 12.3 L35.6 12.3 L34.9 18.3 L39.6 20.2 L43.4 15.5 L48.5 20.6 L43.8 24.4 L45.7 29.1 Z M26 32 a6 6 0 1 0 12 0 a6 6 0 1 0 -12 0 Z"/></g></g><g transform="translate(960 280)"><rect width="150" height="150" rx="26" fill="#0E2E34" stroke="#2E9FE0" stroke-opacity="0.45"/><g transform="translate(43 43) scale(1.0)"><path d="M22 22 L42 42 M42 22 L22 42" stroke="#7FE3FF" stroke-width="4.5" stroke-linecap="round"/></g></g><g transform="translate(1160 280)"><rect width="150" height="150" rx="26" fill="#0E2E34" stroke="#2E9FE0" stroke-opacity="0.45"/><g transform="translate(43 43) scale(1.0)"><path d="M20 33 L29 42 L45 23" fill="none" stroke="#7FE3FF" stroke-width="4.5" stroke-linecap="round" stroke-linejoin="round"/></g></g><g transform="translate(1360 280)"><rect width="150" height="150" rx="26" fill="#0E2E34" stroke="#2E9FE0" stroke-opacity="0.45"/><g transform="translate(43 43) scale(1.0)"><path d="M32 19 V45 M19 32 H45" stroke="#7FE3FF" stroke-width="4.5" stroke-linecap="round"/></g></g><g transform="translate(1560 280)"><rect width="150" height="150" rx="26" fill="#0E2E34" stroke="#2E9FE0" stroke-opacity="0.45"/><g transform="translate(43 43) scale(1.0)"><path d="M19 32 H45" stroke="#7FE3FF" stroke-width="4.5" stroke-linecap="round"/></g></g><g transform="translate(160 480)"><rect width="150" height="150" rx="26" fill="#0E2E34" stroke="#2E9FE0" stroke-opacity="0.45"/><g transform="translate(43 43) scale(1.0)"><path d="M20 32 H43 M34 23 L43 32 L34 41" fill="none" stroke="#3FD98A" stroke-width="4.5" stroke-linecap="round" stroke-linejoin="round"/></g></g><g transform="translate(360 480)"><rect width="150" height="150" rx="26" fill="#0E2E34" stroke="#2E9FE0" stroke-opacity="0.45"/><g transform="translate(43 43) scale(1.0)"><path d="M44 32 H21 M30 23 L21 32 L30 41" fill="none" stroke="#3FD98A" stroke-width="4.5" stroke-linecap="round" stroke-linejoin="round"/></g></g><g transform="translate(560 480)"><rect width="150" height="150" rx="26" fill="#0E2E34" stroke="#2E9FE0" stroke-opacity="0.45"/><g transform="translate(43 43) scale(1.0)"><path d="M21 27 L32 39 L43 27" fill="none" stroke="#3FD98A" stroke-width="4.5" stroke-linecap="round" stroke-linejoin="round"/></g></g><g transform="translate(760 480)"><rect width="150" height="150" rx="26" fill="#0E2E34" stroke="#2E9FE0" stroke-opacity="0.45"/><g transform="translate(43 43) scale(1.0)"><path d="M19 32 L32 19 L45 32" fill="none" stroke="#3FD98A" stroke-width="4" stroke-linecap="round" stroke-linejoin="round"/><path d="M23 30 V45 H41 V30" fill="none" stroke="#3FD98A" stroke-width="4" stroke-linejoin="round"/></g></g><g transform="translate(960 480)"><rect width="150" height="150" rx="26" fill="#0E2E34" stroke="#2E9FE0" stroke-opacity="0.45"/><g transform="translate(43 43) scale(1.0)"><circle cx="29" cy="29" r="9" fill="none" stroke="#3FD98A" stroke-width="4"/><path d="M36 36 L46 46" stroke="#3FD98A" stroke-width="4.5" stroke-linecap="round"/></g></g><g transform="translate(1160 480)"><rect width="150" height="150" rx="26" fill="#0E2E34" stroke="#2E9FE0" stroke-opacity="0.45"/><g transform="translate(43 43) scale(1.0)"><path d="M32 45 C16 34 19 19 32 27 C45 19 48 34 32 45 Z" fill="#3FD98A"/></g></g><g transform="translate(1360 480)"><rect width="150" height="150" rx="26" fill="#0E2E34" stroke="#2E9FE0" stroke-opacity="0.45"/><g transform="translate(43 43) scale(1.0)"><path d="M32 17 L46 23 V33 C46 41 32 47 32 47 C32 47 18 41 18 33 V23 Z" fill="#3FD98A"/></g></g><g transform="translate(1560 480)"><rect width="150" height="150" rx="26" fill="#0E2E34" stroke="#2E9FE0" stroke-opacity="0.45"/><g transform="translate(43 43) scale(1.0)"><path d="M35 15 L19 36 L30 36 L27 49 L45 27 L34 27 Z" fill="#3FD98A"/></g></g><g transform="translate(160 680)"><rect width="150" height="150" rx="26" fill="#0E2E34" stroke="#2E9FE0" stroke-opacity="0.45"/><g transform="translate(43 43) scale(1.0)"><path d="M32 16 L35.9 25.7 L46.3 26.4 L38.3 33 L40.8 43.1 L32 37.6 L23.2 43.1 L25.7 33 L17.7 26.4 L28.1 25.7 Z" fill="#34B7FF"/></g></g><g transform="translate(360 680)"><rect width="150" height="150" rx="26" fill="#0E2E34" stroke="#2E9FE0" stroke-opacity="0.45"/><g transform="translate(43 43) scale(1.0)"><rect x="19" y="30" width="26" height="18" rx="3" fill="#34B7FF"/><path d="M24 30 V25 a8 8 0 0 1 16 0 V30" fill="none" stroke="#34B7FF" stroke-width="4"/></g></g><g transform="translate(560 680)"><rect width="150" height="150" rx="26" fill="#0E2E34" stroke="#2E9FE0" stroke-opacity="0.45"/><g transform="translate(43 43) scale(1.0)"><path d="M32 16 a11 11 0 0 1 11 11 v6 l3 5 H18 l3 -5 v-6 a11 11 0 0 1 11 -11 Z" fill="#34B7FF"/><circle cx="32" cy="49" r="3.4" fill="#34B7FF"/></g></g><g transform="translate(760 680)"><rect width="150" height="150" rx="26" fill="#0E2E34" stroke="#2E9FE0" stroke-opacity="0.45"/><g transform="translate(43 43) scale(1.0)"><circle cx="32" cy="25" r="8" fill="#34B7FF"/><path d="M17 47 a15 13 0 0 1 30 0 Z" fill="#34B7FF"/></g></g><g transform="translate(960 680)"><rect width="150" height="150" rx="26" fill="#0E2E34" stroke="#2E9FE0" stroke-opacity="0.45"/><g transform="translate(43 43) scale(1.0)"><circle cx="32" cy="32" r="14" fill="none" stroke="#34B7FF" stroke-width="4"/><circle cx="32" cy="25" r="2.6" fill="#34B7FF"/><rect x="30" y="30" width="4" height="13" rx="2" fill="#34B7FF"/></g></g><g transform="translate(1160 680)"><rect width="150" height="150" rx="26" fill="#0E2E34" stroke="#2E9FE0" stroke-opacity="0.45"/><g transform="translate(43 43) scale(1.0)"><path d="M20 27 H27 L36 20 V44 L27 37 H20 Z" fill="#34B7FF"/><path d="M41 26 a9 9 0 0 1 0 12" fill="none" stroke="#34B7FF" stroke-width="3.5" stroke-linecap="round"/></g></g><g transform="translate(1360 680)"><rect width="150" height="150" rx="26" fill="#0E2E34" stroke="#2E9FE0" stroke-opacity="0.45"/><g transform="translate(43 43) scale(1.0)"><path d="M23 18 H41 V27 a9 9 0 0 1 -18 0 Z" fill="#34B7FF"/><path d="M23 22 H17 a6 6 0 0 0 6 6" fill="none" stroke="#34B7FF" stroke-width="3"/><path d="M41 22 H47 a6 6 0 0 1 -6 6" fill="none" stroke="#34B7FF" stroke-width="3"/><rect x="29" y="35" width="6" height="6" fill="#34B7FF"/><rect x="23" y="43" width="18" height="4" rx="2" fill="#34B7FF"/></g></g><g transform="translate(1560 680)"><rect width="150" height="150" rx="26" fill="#0E2E34" stroke="#2E9FE0" stroke-opacity="0.45"/><g transform="translate(43 43) scale(1.0)"><path d="M20 23 L28 27 L40 23 L46 27 V43 L40 39 L28 43 L20 39 Z" fill="none" stroke="#34B7FF" stroke-width="3.5" stroke-linejoin="round"/><path d="M28 27 V43 M40 23 V39" stroke="#34B7FF" stroke-width="3.2"/></g></g></svg>